<?xml version="1.0" encoding="utf-8"?>
<!-- Generator: Adobe Illustrator 23.0.3, SVG Export Plug-In . SVG Version: 6.00 Build 0)  -->
<svg version="1.1" id="图层_1" xmlns="http://www.w3.org/2000/svg" xmlns:xlink="http://www.w3.org/1999/xlink" x="0px" y="0px"
	 viewBox="0 0 200 200" style="enable-background:new 0 0 200 200;" xml:space="preserve">
<style type="text/css">
	.st0{fill:#FFFFFF;}
	.st1{fill:#0BA198;}
	.st2{fill:#333333;}
	.st3{font-family:'MicrosoftYaHei';}
	.st4{font-size:36px;}
</style>
<path class="st0" d="M0,100c0,55.2,44.8,100,100,100s100-44.8,100-100S155.2,0,100,0S0,44.8,0,100z"/>
<path class="st1" d="M140.8,167.2H60.9c-8.6,0-15.6,0-15.6-8.6v-118c0-3.4,2.8-6.3,6.3-6.3h100.2c3.4,0,6.3,2.8,6.3,6.3v113.8"/>
<path class="st2" d="M60.6,169.4c-4.4,0-8.4,0-11.6-1.3c-3.9-1.6-5.9-4.7-5.9-9.5v-118c0-4.7,3.8-8.4,8.4-8.4h100.2
	c4.7,0,8.4,3.8,8.4,8.4v113.3c0,0.3-0.2,0.5-0.5,0.5h-4.1V40.6c0-2.2-1.7-4.1-4.1-4.1h-100c-2.2,0-4.1,1.7-4.1,4.1v118
	c0,3.8,1.4,4.8,3.1,5.5c2.3,0.9,6.1,0.9,10.2,0.9h80v4.5h-80C60.8,169.5,60.6,169.4,60.6,169.4z"/>
<path class="st0" d="M52.3,153.1h104.8c0.5,0,0.8,0.3,0.8,0.8c0,0.2,0,0.3-0.2,0.5l-1.9,2.2c-1.7,2-1.7,5,0,7l1.9,2.2
	c0.3,0.3,0.2,0.8-0.2,1.1c-0.2,0.2-0.3,0.2-0.5,0.2H52.3c-3.9,0-7-3.1-7-7C45.3,156.3,48.4,153.1,52.3,153.1z"/>
<path class="st2" d="M157.2,169.4H52.3c-5.2,0-9.2-4.2-9.2-9.2s4.2-9.2,9.2-9.2h104.8c1.7,0,3,1.4,3,3c0,0.8-0.3,1.4-0.6,1.9
	l-1.9,2.2c-0.9,1.3-0.9,3,0,4.2l1.9,2.2c1.1,1.3,0.9,3.3-0.5,4.2C158.4,169.2,157.8,169.4,157.2,169.4L157.2,169.4z M52.3,155.3
	c-2.7,0-4.8,2.2-4.8,4.8s2.2,4.8,4.8,4.8h101.6c-2.2-2.8-2.2-6.7,0-9.5H52.3V155.3z"/>
<path class="st0" d="M118.8,36.7h20.3v46.9l-10.2-11.9l-10.2,11.9V36.7z"/>
<text transform="matrix(1 0 0 1 67 119)" class="st0 st3 st4">还</text>
</svg>
