<?xml version="1.0" standalone="no"?><!DOCTYPE svg PUBLIC "-//W3C//DTD SVG 1.1//EN"
        "http://www.w3.org/Graphics/SVG/1.1/DTD/svg11.dtd">
<svg t="1565766920531" class="icon" viewBox="0 0 1024 1024" version="1.1" xmlns="http://www.w3.org/2000/svg" p-id="606"
     xmlns:xlink="http://www.w3.org/1999/xlink" width="200" height="200">
    <defs>
        <style type="text/css"></style>
    </defs>
    <path d="M832 192H512c0-52.928-43.072-96-96-96h-64c-52.928 0-96 43.072-96 96h-96c-52.928 0-96 43.072-96 96v512c0 52.928 43.072 96 96 96h417.888c9.088 0 17.792-3.872 23.84-10.656s8.96-15.84 7.968-24.864c-0.928-8.416-1.568-16.864-1.568-25.536 0-141.664 132.192-254.688 279.904-216.672 9.568 2.4 19.744 0.352 27.584-5.728A31.974 31.974 0 0 0 928 587.296V288c0-52.928-43.072-96-96-96zM480 736c-105.888 0-192-86.112-192-192s86.112-192 192-192 192 86.112 192 192-86.112 192-192 192z m304-320c-26.496 0-48-21.504-48-48s21.504-48 48-48 48 21.504 48 48-21.504 48-48 48z"
          p-id="607"></path>
    <path d="M832 673.984c-88.384 0-160 71.616-160 160s71.616 160 160 160 160-71.616 160-160-71.616-160-160-160zM896 864h-32v32c0 17.696-14.304 32-32 32s-32-14.304-32-32v-32h-32c-17.696 0-32-14.304-32-32s14.304-32 32-32h32v-32c0-17.696 14.304-32 32-32s32 14.304 32 32v32h32c17.696 0 32 14.304 32 32s-14.304 32-32 32z"
          p-id="608"></path>
</svg>
